# xmcd CD database file
#
# Track frame offsets:
#	150
#	9866
#	46920
#	64445
#	86901
#	107755
#	127067
#	145301
#	184442
#
# Disc length: 3137 seconds
#
# Revision: 0
# Processed by: cddbd v1.5.1PL0 Copyright (c) Steve Scherf et al.
# Submitted via: CDex 1.51
#
DISCID=830c3f09
DTITLE=Otomo Yoshihide - Guitar Solo
DYEAR=2004
DGENRE=Jazz
TTITLE0=Theme from Canary
TTITLE1=Rig
TTITLE2=Gomen
TTITLE3=Mood Indigo
TTITLE4=Kazahana
TTITLE5=Roulette
TTITLE6=Misty
TTITLE7=Cylinder
TTITLE8=Lonely Woman
EXTD=YEAR: 2004
EXTT0=
EXTT1=
EXTT2=
EXTT3=
EXTT4=
EXTT5=
EXTT6=
EXTT7=
EXTT8=
PLAYORDER=
